<svg xmlns="http://www.w3.org/2000/svg" id="Layer_2" data-name="Layer 2" viewBox="0 0 439.55 92.26"><defs><style>      .cls-1 {        fill: #f6aa1e;      }    </style></defs><g id="Layer_1-2" data-name="Layer 1"><g><g><path d="M0,91.06V17.52H14.85v28.95h29.09V17.52h14.85V91.06h-14.85V58.9H14.85v32.16H0Z"></path><path d="M73.35,63.67c0-4.68,1.15-9.21,3.46-13.6,2.31-4.38,5.57-7.72,9.81-10.03,4.23-2.31,8.95-3.46,14.17-3.46,8.06,0,14.66,2.62,19.81,7.85,5.15,5.24,7.73,11.85,7.73,19.84s-2.6,14.74-7.8,20.04c-5.2,5.3-11.75,7.95-19.64,7.95-4.88,0-9.54-1.1-13.97-3.31-4.43-2.21-7.8-5.44-10.11-9.71-2.31-4.27-3.46-9.45-3.46-15.58Zm14.45,.75c0,5.28,1.25,9.33,3.76,12.14,2.51,2.81,5.6,4.21,9.28,4.21s6.76-1.4,9.26-4.21c2.49-2.81,3.73-6.89,3.73-12.24s-1.25-9.23-3.73-12.04c-2.49-2.81-5.58-4.21-9.26-4.21s-6.77,1.4-9.28,4.21c-2.51,2.81-3.76,6.85-3.76,12.14Z"></path><path d="M166.37,37.78v11.24h-9.63v21.47c0,4.35,.09,6.88,.28,7.6,.18,.72,.6,1.31,1.25,1.78,.65,.47,1.45,.7,2.38,.7,1.3,0,3.19-.45,5.67-1.35l1.2,10.93c-3.28,1.4-6.99,2.11-11.14,2.11-2.54,0-4.83-.43-6.87-1.28-2.04-.85-3.54-1.96-4.49-3.31-.95-1.35-1.61-3.19-1.98-5.5-.3-1.64-.45-4.95-.45-9.93v-23.22h-6.47v-11.24h6.47v-10.58l14.15-8.22v18.81h9.63Z"></path><path d="M209.57,74.1l14.05,2.36c-1.8,5.15-4.66,9.07-8.55,11.76-3.9,2.69-8.77,4.04-14.62,4.04-9.26,0-16.12-3.03-20.57-9.08-3.51-4.85-5.27-10.97-5.27-18.36,0-8.83,2.31-15.74,6.92-20.74,4.61-5,10.45-7.5,17.51-7.5,7.93,0,14.18,2.62,18.76,7.85,4.58,5.24,6.77,13.25,6.57,24.06h-35.31c.1,4.18,1.23,7.43,3.41,9.76,2.18,2.32,4.88,3.49,8.13,3.49,2.21,0,4.06-.6,5.57-1.8,1.51-1.21,2.64-3.14,3.41-5.82Zm.8-14.24c-.1-4.08-1.15-7.18-3.16-9.31-2.01-2.12-4.45-3.19-7.32-3.19-3.07,0-5.62,1.12-7.62,3.36-2.01,2.24-2.99,5.29-2.96,9.13h21.07Z"></path><path d="M238.42,91.06V17.52h14.1V91.06h-14.1Z"></path></g><g><polygon class="cls-1" points="271.12 17.94 305.56 17.79 332.05 37.18 312.25 48.94 271.12 17.94"></polygon><polygon class="cls-1" points="336.04 66.8 352.84 53.32 402.44 90.66 367.61 90.58 336.04 66.8"></polygon><path class="cls-1" d="M268,90.67S324.48,29.1,439.55,0c0,0-82.31,29.56-133.19,90.67h-38.36Z"></path></g></g></g></svg>